# xmcd
#
# Track frame offsets: 
#        150
#        13775
#        31205
#        50221
#        76033
#        95542
#        112565
#        130601
#        149226
#        168566
#        187913
#        208782
#        227010
#
# Disc length: 3482 seconds
#
# Revision: 0
# Processed by: cddbd v1.5.2PL0 Copyright (c) Steve Scherf et al.
# Submitted via: ExactAudioCopy v1.3
#
DISCID=a80d980d
DTITLE=Duke Danger -  If It Ain't One Thing, It's Another
DYEAR=2006
DGENRE=Blues
TTITLE0=Come Back and Love Me
TTITLE1=Damn Your Eyes
TTITLE2=I'm Gonna Love You Tonight
TTITLE3=If It Ain't One Thing, It's Another
TTITLE4=Let The Music Play
TTITLE5=Lost In Love
TTITLE6=Love At First Sight
TTITLE7=Now I'm Singing The Blues
TTITLE8=One More Last Chance
TTITLE9=One Night With You
TTITLE10=That Woman's Poison
TTITLE11=Tuffer Than Tuff
TTITLE12=Who Will The Next Fool Be
EXTD=
EXTT0=
EXTT1=
EXTT2=
EXTT3=
EXTT4=
EXTT5=
EXTT6=
EXTT7=
EXTT8=
EXTT9=
EXTT10=
EXTT11=
EXTT12=
PLAYORDER=
